<?xml version="1.0" standalone="no"?>
<!DOCTYPE svg PUBLIC "-//W3C//DTD SVG 20010904//EN"
 "http://www.w3.org/TR/2001/REC-SVG-20010904/DTD/svg10.dtd">
<svg version="1.0" xmlns="http://www.w3.org/2000/svg"
 width="16.000000pt" height="16.000000pt" viewBox="0 0 64.000000 64.000000"
 preserveAspectRatio="xMidYMid meet">

<g transform="translate(0.000000,64.000000) scale(0.100000,-0.100000)"
fill="#000000" stroke="none">
<path d="M12 498 c-8 -8 -12 -51 -12 -129 0 -110 1 -119 22 -133 25 -18 113
-22 123 -6 4 6 -7 10 -24 10 -17 0 -31 5 -31 10 0 6 70 10 190 10 117 0 190 4
190 10 0 6 -76 11 -193 13 -184 2 -182 2 43 3 129 0 220 -1 203 -3 -41 -5 -43
-23 -3 -23 17 0 30 -4 30 -10 0 -6 -70 -10 -191 -10 -124 0 -188 -3 -184 -10
4 -6 86 -10 213 -10 267 0 252 -9 252 149 0 78 -4 121 -12 129 -9 9 -76 11
-252 10 l-241 -2 240 -6 c132 -3 241 -7 243 -8 1 -1 2 -56 2 -121 0 -99 -3
-120 -16 -125 -29 -11 -34 -6 -34 29 l0 35 -250 0 -250 0 0 -35 c0 -35 -5 -40
-34 -29 -13 5 -16 26 -16 125 0 132 -5 122 75 132 18 3 10 5 -20 6 -28 0 -56
-4 -63 -11z"/>
<path d="M310 450 c0 -6 38 -10 95 -10 57 0 95 4 95 10 0 6 -38 10 -95 10 -57
0 -95 -4 -95 -10z"/>
<path d="M530 450 c0 -5 9 -10 20 -10 11 0 20 5 20 10 0 6 -9 10 -20 10 -11 0
-20 -4 -20 -10z"/>
<path d="M157 168 c-10 -17 -15 -33 -13 -36 8 -8 33 17 39 38 8 32 -7 31 -26
-2z"/>
<path d="M237 193 c-11 -10 -8 -51 3 -58 6 -4 10 8 10 29 0 37 -2 41 -13 29z"/>
<path d="M317 193 c-11 -10 -8 -63 3 -63 6 0 10 16 10 35 0 36 -2 40 -13 28z"/>
<path d="M390 165 c0 -22 4 -34 10 -30 6 3 10 17 10 30 0 13 -4 27 -10 30 -6
4 -10 -8 -10 -30z"/>
<path d="M457 193 c-6 -11 9 -49 23 -58 21 -13 21 2 2 35 -11 17 -22 28 -25
23z"/>
</g>
</svg>
