<?xml version="1.0" standalone="no"?>
<!DOCTYPE svg PUBLIC "-//W3C//DTD SVG 20010904//EN"
 "http://www.w3.org/TR/2001/REC-SVG-20010904/DTD/svg10.dtd">
<svg version="1.0" xmlns="http://www.w3.org/2000/svg"
 width="16.000000pt" height="16.000000pt" viewBox="0 0 64.000000 64.000000"
 preserveAspectRatio="xMidYMid meet">

<g transform="translate(0.000000,64.000000) scale(0.100000,-0.100000)"
fill="#000000" stroke="none">
<path d="M146 618 c-14 -19 -16 -62 -16 -273 0 -239 1 -252 23 -295 28 -57 56
-63 87 -21 l21 31 -40 0 c-65 0 -71 13 -71 161 l0 129 49 0 c31 0 53 5 61 15
10 12 37 15 121 15 l109 0 0 -144 c0 -181 3 -176 -126 -176 -61 0 -93 -4 -89
-10 3 -5 32 -10 63 -10 47 0 60 -4 70 -21 21 -33 54 -21 79 31 22 43 23 57 23
277 0 137 -4 234 -10 238 -5 3 -10 -28 -12 -77 l-3 -83 -165 0 -165 0 -3 87
c-4 132 -10 128 167 128 142 0 149 -1 163 -22 8 -12 17 -17 21 -11 3 5 -1 19
-9 31 -14 21 -22 22 -174 22 -153 0 -159 -1 -174 -22z m77 -245 c-13 -2 -35
-2 -50 0 -16 2 -5 4 22 4 28 0 40 -2 28 -4z m-3 -343 c0 -5 -6 -10 -14 -10 -8
0 -18 5 -21 10 -3 6 3 10 14 10 12 0 21 -4 21 -10z m235 0 c-8 -13 -35 -13
-35 0 0 6 9 10 21 10 11 0 17 -4 14 -10z"/>
<path d="M447 583 c-11 -10 -8 -141 3 -148 6 -4 10 23 10 74 0 81 -1 87 -13
74z"/>
<path d="M187 553 c-11 -10 -8 -93 3 -93 6 0 10 18 10 40 0 22 5 40 10 40 6 0
10 5 10 10 0 11 -23 14 -33 3z"/>
<path d="M447 353 c-11 -10 -8 -201 3 -208 6 -4 10 33 10 104 0 111 -1 117
-13 104z"/>
<path d="M445 121 c-3 -5 -1 -12 5 -16 5 -3 10 1 10 9 0 18 -6 21 -15 7z"/>
</g>
</svg>
