
<?xml version="1.0" standalone="no"?>
<!DOCTYPE svg PUBLIC "-//W3C//DTD SVG 20010904//EN"
 "http://www.w3.org/TR/2001/REC-SVG-20010904/DTD/svg10.dtd">
<svg version="1.0" xmlns="http://www.w3.org/2000/svg"
 width="16.000000pt" height="16.000000pt" viewBox="0 0 32.000000 32.000000"
 preserveAspectRatio="xMidYMid meet">

<g transform="translate(0.000000,32.000000) scale(0.100000,-0.100000)"
fill="#000000" stroke="none">
<path d="M40 280 c-17 -17 -21 -29 -15 -53 3 -18 9 -56 13 -86 6 -48 11 -56
39 -70 18 -9 34 -25 36 -36 4 -17 4 -17 6 3 1 16 -6 26 -19 29 l-21 6 21 14
c13 9 20 25 20 47 0 33 1 33 53 40 28 3 69 6 90 6 l37 0 0 49 0 48 -47 6
c-166 21 -190 20 -213 -3z m203 -6 c24 -5 27 -10 27 -43 l0 -38 -61 -7 c-34
-3 -80 -6 -102 -6 -68 0 -99 49 -60 93 16 17 27 18 93 13 41 -4 87 -9 103 -12z
m44 -66 c-2 -13 -4 -3 -4 22 0 25 2 35 4 23 2 -13 2 -33 0 -45z m-179 -77 c-3
-31 -7 -36 -30 -39 -27 -3 -28 -1 -28 41 0 43 0 43 31 39 28 -4 30 -7 27 -41z"/>
<path d="M60 256 c-27 -33 18 -72 48 -42 13 13 14 20 6 34 -15 23 -38 26 -54
8z m48 -19 c4 -20 -25 -34 -40 -19 -15 15 -1 44 19 40 10 -2 19 -11 21 -21z"/>
<path d="M148 253 c7 -3 16 -2 19 1 4 3 -2 6 -13 5 -11 0 -14 -3 -6 -6z"/>
<path d="M143 233 c9 -2 23 -2 30 0 6 3 -1 5 -18 5 -16 0 -22 -2 -12 -5z"/>
<path d="M148 213 c7 -3 16 -2 19 1 4 3 -2 6 -13 5 -11 0 -14 -3 -6 -6z"/>
</g>
</svg>
