<?xml version="1.0" standalone="no"?>
<!DOCTYPE svg PUBLIC "-//W3C//DTD SVG 20010904//EN"
 "http://www.w3.org/TR/2001/REC-SVG-20010904/DTD/svg10.dtd">
<svg version="1.0" xmlns="http://www.w3.org/2000/svg"
 width="16.000000pt" height="16.000000pt" viewBox="0 0 64.000000 64.000000"
 preserveAspectRatio="xMidYMid meet">

<g transform="translate(0.000000,64.000000) scale(0.100000,-0.100000)"
fill="#000000" stroke="none">
<path d="M50 607 c0 -18 -11 -48 -25 -69 -14 -20 -25 -48 -25 -62 0 -25 2 -26
71 -26 44 0 68 4 64 10 -3 6 -31 10 -61 10 -62 0 -66 8 -29 62 25 37 35 108
15 108 -5 0 -10 -15 -10 -33z"/>
<path d="M158 634 c-16 -15 -7 -51 22 -97 35 -56 35 -56 13 -73 -16 -12 -10
-13 40 -14 48 0 57 -3 57 -18 0 -9 -9 -23 -20 -30 -22 -14 -27 -51 -8 -70 20
-20 66 -14 79 9 12 23 -2 69 -21 69 -5 0 -10 9 -10 20 0 17 7 20 50 20 57 0
64 -14 30 -57 -18 -23 -19 -29 -7 -47 17 -25 52 -32 73 -16 20 18 17 58 -6 72
-11 7 -20 21 -20 30 0 15 9 18 55 18 46 0 55 -3 55 -18 0 -9 -9 -23 -20 -30
-22 -14 -27 -51 -8 -70 21 -21 67 -15 79 12 12 25 -2 66 -21 66 -6 0 -10 9
-10 20 0 17 7 20 40 20 38 0 40 2 40 30 0 28 -2 30 -40 30 -38 0 -40 2 -40 30
l0 31 -62 -3 c-60 -3 -63 -4 -66 -30 -5 -45 -22 -32 -22 17 l0 45 -60 0 -60 0
0 -45 c0 -45 0 -45 -34 -45 -27 0 -39 7 -57 32 -13 17 -25 47 -28 65 -3 19 -9
31 -13 27z m232 -89 c0 -35 0 -35 -45 -35 -43 0 -45 1 -45 28 0 37 6 42 52 42
37 0 38 -1 38 -35z m150 -15 c0 -17 -7 -20 -45 -20 -38 0 -45 3 -45 20 0 17 7
20 45 20 38 0 45 -3 45 -20z m80 -50 c0 -6 -72 -10 -195 -10 -123 0 -195 4
-195 10 0 6 72 10 195 10 123 0 195 -4 195 -10z m-295 -115 c0 -22 -31 -33
-47 -17 -17 17 -1 44 24 40 15 -2 23 -10 23 -23z m123 3 c-3 -25 -36 -37 -48
-17 -13 20 0 39 27 39 20 0 24 -4 21 -22z m127 -3 c0 -22 -31 -33 -47 -17 -17
17 -1 44 24 40 15 -2 23 -10 23 -23z"/>
<path d="M65 534 c-20 -30 -11 -46 10 -18 13 18 20 44 11 44 -2 0 -11 -12 -21
-26z"/>
<path d="M88 392 c-16 -7 -28 -19 -28 -27 0 -7 -6 -16 -12 -19 -11 -5 -11 -7
0 -12 6 -3 12 -16 12 -29 0 -18 -6 -24 -28 -27 l-27 -3 -3 -137 c-2 -90 1
-138 8 -138 5 0 10 5 10 10 0 6 38 10 95 10 67 0 95 -4 95 -12 0 -9 3 -9 12 0
16 16 180 16 196 0 9 -9 12 -9 12 0 0 17 187 17 193 0 9 -25 18 1 14 38 -3 34
-5 36 -12 17 -6 -19 -15 -23 -46 -23 l-39 0 0 110 0 110 40 0 40 0 0 -75 c0
-45 4 -75 10 -75 7 0 10 30 8 83 l-3 82 -232 3 -233 2 0 24 c0 14 5 26 12 28
14 5 -30 58 -48 58 -7 0 -14 4 -16 8 -1 4 -15 2 -30 -6z m50 -29 c-10 -2 -28
-2 -40 0 -13 2 -5 4 17 4 22 1 32 -1 23 -4z m12 -54 c0 -29 -2 -30 -37 -27
-33 3 -38 7 -41 31 -3 26 -1 27 37 27 39 0 41 -1 41 -31z m60 -84 l0 -35 -95
0 -95 0 0 35 0 35 95 0 95 0 0 -35z m200 -15 c0 -43 -3 -50 -20 -50 -21 0 -27
24 -9 36 19 11 -12 24 -61 24 -49 0 -80 -13 -61 -24 18 -12 12 -36 -9 -36 -17
0 -20 7 -20 50 l0 50 90 0 90 0 0 -50z m110 -60 l0 -110 -45 0 -45 0 0 110 0
110 45 0 45 0 0 -110z m-170 30 c0 -16 -7 -20 -30 -20 -23 0 -30 4 -30 20 0
16 7 20 30 20 23 0 30 -4 30 -20z m-308 -57 l3 -48 68 -3 67 -3 0 51 c0 38 4
50 15 50 12 0 15 -14 15 -65 l0 -65 -95 0 -95 0 0 65 c0 75 17 89 22 18z m118
7 l0 -40 -50 0 -50 0 0 40 0 40 50 0 50 0 0 -40z m250 -40 l0 -50 -35 0 c-19
0 -35 5 -35 10 0 6 11 10 24 10 14 0 28 5 31 10 4 6 -8 10 -29 10 -36 0 -52
19 -18 21 30 1 -18 17 -54 18 -24 1 -33 -4 -39 -21 -21 -61 -23 -62 -24 -10
l-1 52 90 0 90 0 0 -50z m-107 3 c-7 -2 -19 -2 -25 0 -7 3 -2 5 12 5 14 0 19
-2 13 -5z m17 -38 c0 -10 -10 -15 -30 -15 -20 0 -30 5 -30 15 0 10 10 15 30
15 20 0 30 -5 30 -15z"/>
<path d="M490 145 c0 -15 4 -24 10 -20 6 3 10 12 10 20 0 8 -4 17 -10 20 -6 4
-10 -5 -10 -20z"/>
<path d="M550 144 c0 -14 4 -23 10 -19 6 3 10 15 10 26 0 10 -4 19 -10 19 -5
0 -10 -12 -10 -26z"/>
</g>
</svg>
