<?xml version="1.0" standalone="no"?>
<!DOCTYPE svg PUBLIC "-//W3C//DTD SVG 20010904//EN"
 "http://www.w3.org/TR/2001/REC-SVG-20010904/DTD/svg10.dtd">
<svg version="1.0" xmlns="http://www.w3.org/2000/svg"
 width="16.000000pt" height="16.000000pt" viewBox="0 0 32.000000 32.000000"
 preserveAspectRatio="xMidYMid meet">

<g transform="translate(0.000000,32.000000) scale(0.100000,-0.100000)"
fill="#000000" stroke="none">
<path d="M14 297 c-2 -7 -3 -74 -2 -148 l3 -134 145 0 145 0 0 145 0 145 -143
3 c-111 2 -144 0 -148 -11z m284 -18 c3 -15 -13 -17 -137 -17 -104 0 -141 3
-141 12 0 24 15 27 144 24 112 -3 131 -5 134 -19z m0 -141 l-3 -113 -135 0
-135 0 -3 113 -3 112 141 0 141 0 -3 -112z"/>
<path d="M40 280 c0 -5 7 -10 15 -10 8 0 15 5 15 10 0 6 -7 10 -15 10 -8 0
-15 -4 -15 -10z"/>
<path d="M80 280 c0 -5 7 -10 15 -10 8 0 15 5 15 10 0 6 -7 10 -15 10 -8 0
-15 -4 -15 -10z"/>
<path d="M120 283 c0 -5 18 -8 40 -8 22 0 40 3 40 8 0 4 -18 7 -40 7 -22 0
-40 -3 -40 -7z"/>
<path d="M210 280 c0 -5 7 -10 15 -10 8 0 15 5 15 10 0 6 -7 10 -15 10 -8 0
-15 -4 -15 -10z"/>
<path d="M250 280 c0 -5 7 -10 15 -10 8 0 15 5 15 10 0 6 -7 10 -15 10 -8 0
-15 -4 -15 -10z"/>
<path d="M40 135 l0 -95 120 0 120 0 0 95 0 95 -120 0 -120 0 0 -95z m230 0
l0 -85 -110 0 -110 0 0 85 0 85 110 0 110 0 0 -85z"/>
<path d="M66 194 c-12 -31 -4 -34 94 -34 98 0 106 3 94 34 -7 17 -34 22 -34 6
0 -6 -27 -10 -60 -10 -33 0 -60 4 -60 10 0 16 -27 11 -34 -6z m142 -21 c-27
-2 -69 -2 -96 0 -26 2 -4 3 48 3 52 0 74 -1 48 -3z"/>
<path d="M123 124 c-3 -8 -1 -20 4 -25 7 -7 11 -2 11 15 0 29 -6 33 -15 10z"/>
<path d="M153 124 c-3 -8 -1 -20 4 -25 7 -7 11 -2 11 15 0 29 -6 33 -15 10z"/>
<path d="M183 124 c-3 -8 -1 -20 4 -25 7 -7 11 -2 11 15 0 29 -6 33 -15 10z"/>
<path d="M133 63 c15 -2 39 -2 55 0 15 2 2 4 -28 4 -30 0 -43 -2 -27 -4z"/>
</g>
</svg>
