<?xml version="1.0" standalone="no"?>
<!DOCTYPE svg PUBLIC "-//W3C//DTD SVG 20010904//EN"
 "http://www.w3.org/TR/2001/REC-SVG-20010904/DTD/svg10.dtd">
<svg version="1.0" xmlns="http://www.w3.org/2000/svg"
 width="16.000000pt" height="16.000000pt" viewBox="0 0 64.000000 64.000000"
 preserveAspectRatio="xMidYMid meet">

<g transform="translate(0.000000,64.000000) scale(0.100000,-0.100000)"
fill="#000000" stroke="none">
<path d="M200 614 c0 -3 16 -26 36 -50 l36 -44 -71 0 c-39 0 -71 -3 -71 -8 0
-4 96 -8 214 -9 117 0 223 -4 235 -8 31 -9 36 -42 36 -223 0 -160 -1 -164 -24
-183 -16 -13 -39 -19 -72 -19 -27 0 -49 -4 -49 -10 0 -5 9 -10 20 -10 11 0 20
-7 20 -15 0 -8 5 -15 10 -15 6 0 10 6 10 14 0 15 21 26 51 26 10 0 27 12 36
27 16 23 18 52 18 206 l0 179 -28 24 c-26 22 -37 24 -128 24 -54 0 -99 3 -99
6 0 3 14 23 32 45 46 57 29 57 -26 -1 -26 -27 -56 -50 -66 -50 -10 0 -38 23
-63 50 -42 47 -57 58 -57 44z"/>
<path d="M33 496 l-28 -24 0 -179 c0 -154 2 -183 18 -206 9 -15 26 -27 36 -27
30 0 51 -11 51 -26 0 -8 5 -14 10 -14 6 0 10 7 10 15 0 13 24 15 155 15 97 0
155 4 155 10 0 6 -68 10 -184 10 -237 0 -227 -7 -234 152 -6 137 4 243 25 263
8 8 25 15 39 15 13 0 24 5 24 10 0 19 -49 10 -77 -14z"/>
<path d="M128 473 c-70 -6 -73 -13 -73 -190 0 -135 2 -156 17 -167 40 -30 456
-30 496 0 15 11 17 32 17 168 0 132 -3 158 -17 172 -14 14 -44 17 -205 19
-103 2 -209 1 -235 -2z m424 -31 c18 -18 18 -296 0 -314 -18 -18 -445 -19
-463 -1 -16 16 -24 221 -12 278 8 35 13 41 43 47 19 3 121 6 227 5 142 -2 195
-5 205 -15z"/>
</g>
</svg>
